<svg id="Component_1" data-name="Component 1" xmlns="http://www.w3.org/2000/svg" xmlns:xlink="http://www.w3.org/1999/xlink" width="346.32" height="94.541" viewBox="0 0 346.32 94.541">
  <defs>
    <clipPath id="clip-path">
      <rect width="346.32" height="94.541" fill="none"/>
    </clipPath>
  </defs>
  <g id="Logo" clip-path="url(#clip-path)">
    <path id="Path_13" data-name="Path 13" d="M-23.84,118.949S-81.408,159.8,25.584,49.793,62.016-17.639,62.016-17.639" transform="matrix(0.695, 0.719, -0.719, 0.695, 161.419, -3.575)" fill="none" stroke="#0fa1b4" stroke-width="5"/>
    <path id="Path_14" data-name="Path 14" d="M10.918,6.223a6.618,6.618,0,0,0-2.588.5A5.8,5.8,0,0,0,6.285,8.15,6.6,6.6,0,0,0,4.947,10.4a8.582,8.582,0,0,0-.479,2.947,8.006,8.006,0,0,0,.52,2.959,6.657,6.657,0,0,0,1.426,2.244,6.221,6.221,0,0,0,2.133,1.424,6.923,6.923,0,0,0,2.629.5,5.729,5.729,0,0,0,1.835-.275,4.868,4.868,0,0,0,1.472-.791V13.957H11.549v-.926h5.539v6.832a14.435,14.435,0,0,1-1.367.645,9.946,9.946,0,0,1-1.49.469,14.146,14.146,0,0,1-1.759.287,21.213,21.213,0,0,1-2.173.1,10.106,10.106,0,0,1-2.442-.287,9.271,9.271,0,0,1-2.144-.814A8.576,8.576,0,0,1,3.93,19a7.756,7.756,0,0,1-2.208-3.539,7.407,7.407,0,0,1-.3-2.115A7.957,7.957,0,0,1,1.7,11.221,8.114,8.114,0,0,1,3.837,7.582,8.289,8.289,0,0,1,5.578,6.27a8.891,8.891,0,0,1,2.115-.855,9.418,9.418,0,0,1,2.43-.3,7.434,7.434,0,0,1,2.273.334,8.04,8.04,0,0,1,1.9.885A7.791,7.791,0,0,1,15.826,7.6a9.548,9.548,0,0,1,1.145,1.506l-1.122.75A7.782,7.782,0,0,0,13.67,7.1,4.55,4.55,0,0,0,10.918,6.223ZM28.913,21.363a8.71,8.71,0,0,1-3.359-.645,8.5,8.5,0,0,1-2.711-1.764,8.27,8.27,0,0,1-1.811-2.613,7.812,7.812,0,0,1-.66-3.193,7.721,7.721,0,0,1,1.145-4.066,7.977,7.977,0,0,1,1.326-1.623,8.439,8.439,0,0,1,1.724-1.254A8.839,8.839,0,0,1,26.617,5.4a9.348,9.348,0,0,1,4.6,0,8.978,8.978,0,0,1,2.051.809,8.256,8.256,0,0,1,3.05,2.877A7.607,7.607,0,0,1,37.168,11a7.687,7.687,0,0,1,.3,2.145,7.9,7.9,0,0,1-1.151,4.137,8.392,8.392,0,0,1-3.05,2.953,8.689,8.689,0,0,1-2.051.832A8.9,8.9,0,0,1,28.913,21.363Zm0-.773a4.846,4.846,0,0,0,2.355-.557,5.035,5.035,0,0,0,1.724-1.553,7.244,7.244,0,0,0,1.057-2.355,11.719,11.719,0,0,0,.356-2.977,11.4,11.4,0,0,0-.356-2.941,6.919,6.919,0,0,0-1.057-2.3,4.918,4.918,0,0,0-1.724-1.5,5.019,5.019,0,0,0-2.355-.533,5.071,5.071,0,0,0-2.378.533,4.867,4.867,0,0,0-1.718,1.5,6.9,6.9,0,0,0-1.046,2.3,11.577,11.577,0,0,0-.351,2.941,11.9,11.9,0,0,0,.351,2.977,7.229,7.229,0,0,0,1.046,2.355,4.983,4.983,0,0,0,1.718,1.553A4.9,4.9,0,0,0,28.913,20.59ZM40.972,5.461h1.461L52.587,16.828H52.7V5.461h1.145v15.9h-.608l-11-12.633h-.093V21h-1.18Zm29.9,0L59.668,19.992H70.874V21H56.162v-.387L67.041,6.469H56.162V5.461Zm8.32-.352L86.485,21H83.832l-2.36-5.18H74.823L72.381,21H71.072L78.539,5.109Zm-3.914,9.7h5.714L78.177,8.66ZM88.635,5.461h2.606V19.992h7.806V21H88.635Zm23.51,0V6.469h-8.168v5.555h5.469v1.008h-5.469v6.961h8.168V21H101.372V5.461Zm15.88,0L116.819,19.992h11.206V21H113.314v-.387L124.192,6.469H113.314V5.461Zm6.415,9.258V16.09H128.75V14.719Zm11.5-8.5a6.618,6.618,0,0,0-2.588.5,5.8,5.8,0,0,0-2.045,1.43,6.6,6.6,0,0,0-1.338,2.25,8.581,8.581,0,0,0-.479,2.947,8.007,8.007,0,0,0,.52,2.959,6.658,6.658,0,0,0,1.426,2.244,6.221,6.221,0,0,0,2.133,1.424,6.923,6.923,0,0,0,2.629.5,5.729,5.729,0,0,0,1.835-.275,4.868,4.868,0,0,0,1.472-.791V13.957h-2.933v-.926h5.539v6.832a14.434,14.434,0,0,1-1.367.645,9.946,9.946,0,0,1-1.49.469,14.146,14.146,0,0,1-1.759.287,21.213,21.213,0,0,1-2.173.1,10.106,10.106,0,0,1-2.442-.287,9.271,9.271,0,0,1-2.144-.814A8.577,8.577,0,0,1,138.951,19a7.756,7.756,0,0,1-2.208-3.539,7.407,7.407,0,0,1-.3-2.115,7.957,7.957,0,0,1,.286-2.127,8.114,8.114,0,0,1,2.133-3.639A8.289,8.289,0,0,1,140.6,6.27a8.891,8.891,0,0,1,2.115-.855,9.418,9.418,0,0,1,2.43-.3,7.434,7.434,0,0,1,2.273.334,8.04,8.04,0,0,1,1.9.885A7.792,7.792,0,0,1,150.846,7.6a9.548,9.548,0,0,1,1.145,1.506l-1.122.75A7.782,7.782,0,0,0,148.69,7.1,4.55,4.55,0,0,0,145.938,6.223Zm16.207-1.113L169.437,21h-2.652l-2.36-5.18h-6.649L155.333,21h-1.309l7.467-15.891Zm-3.914,9.7h5.714L161.129,8.66Zm13.356-9.352h2.606V19.992H182V21H171.587Zm12.737,0h2.606V21h-2.606Zm9.278,7.828a8.2,8.2,0,0,0,.491,2.924,6.4,6.4,0,0,0,1.35,2.191,5.793,5.793,0,0,0,2.027,1.371A6.674,6.674,0,0,0,200,20.25a4.063,4.063,0,0,0,1.577-.316,6.005,6.005,0,0,0,1.408-.826,7.393,7.393,0,0,0,2-2.443l1.1.7a9.954,9.954,0,0,1-1.133,1.506,7.551,7.551,0,0,1-3.453,2.162,8.29,8.29,0,0,1-2.413.328,9.143,9.143,0,0,1-3.5-.645,8.276,8.276,0,0,1-2.693-1.746,7.746,7.746,0,0,1-1.735-2.572,8,8,0,0,1-.613-3.111,8.113,8.113,0,0,1,.28-2.127,7.928,7.928,0,0,1,.812-1.945,8.041,8.041,0,0,1,1.3-1.664,8.166,8.166,0,0,1,1.729-1.3,8.758,8.758,0,0,1,2.109-.844,9.641,9.641,0,0,1,2.442-.3,7.474,7.474,0,0,1,2.284.334,8.04,8.04,0,0,1,1.9.885A7.945,7.945,0,0,1,204.942,7.6a9.36,9.36,0,0,1,1.151,1.506l-1.133.75a7.648,7.648,0,0,0-2.173-2.76,4.594,4.594,0,0,0-2.769-.873,6.405,6.405,0,0,0-2.512.492,6,6,0,0,0-2.039,1.406,6.548,6.548,0,0,0-1.367,2.221A8.247,8.247,0,0,0,193.6,13.289Zm16.114-7.828h2.606V21h-2.606ZM222.6,5.109,229.895,21h-2.652l-2.36-5.18h-6.649L215.791,21h-1.309l7.467-15.891Zm-3.914,9.7H224.4L221.587,8.66Zm17.516-.094V16.09h-5.691V14.719Zm13.66-9.609L257.156,21H254.5l-2.36-5.18h-6.649L243.052,21h-1.309L249.21,5.109Zm-3.914,9.7h5.714L248.848,8.66Zm13.356-9.352h2.606V19.992h7.806V21H259.306Zm22.739,0V6.469h-7.56v5.555h5.469v1.008h-5.469V21h-2.606V5.461Zm2.232,0h5.375a8.97,8.97,0,0,1,2.442.3,5.16,5.16,0,0,1,1.753.838A3.535,3.535,0,0,1,294.9,7.881a3.708,3.708,0,0,1,.356,1.623,3.377,3.377,0,0,1-.275,1.359,3.788,3.788,0,0,1-.771,1.143,4.734,4.734,0,0,1-1.2.879,6.9,6.9,0,0,1-1.542.58L297.119,21h-3.026l-5.387-7.3h-1.823V21h-2.606Zm2.606,7.453h1.507a5.349,5.349,0,0,0,1.618-.234,4.006,4.006,0,0,0,1.285-.662,2.965,2.965,0,0,0,1.151-2.408,3.375,3.375,0,0,0-.24-1.289,2.848,2.848,0,0,0-.678-1,3.154,3.154,0,0,0-1.04-.65,3.592,3.592,0,0,0-1.315-.234h-2.29Zm23.125-7.453V6.469H301.84v5.555h5.469v1.008H301.84v6.961h8.168V21H299.234V5.461Zm3.061,0h5.165a16.511,16.511,0,0,1,4.1.445,7.017,7.017,0,0,1,2.863,1.43,7.45,7.45,0,0,1,1.969,2.578,7.586,7.586,0,0,1,.66,3.176,8.055,8.055,0,0,1-.59,3.082,7.117,7.117,0,0,1-1.729,2.514,8.209,8.209,0,0,1-2.816,1.693,11.008,11.008,0,0,1-3.839.621h-5.784Zm2.606,14.4h2.769a6.967,6.967,0,0,0,2.466-.434,5.612,5.612,0,0,0,2.016-1.289,6.115,6.115,0,0,0,1.355-2.1,7.776,7.776,0,0,0,.5-2.889,7.229,7.229,0,0,0-.467-2.643A6.117,6.117,0,0,0,323,8.438a5.891,5.891,0,0,0-2-1.348,6.59,6.59,0,0,0-2.541-.48h-2.781Zm23.51,1.5a8.71,8.71,0,0,1-3.359-.645,8.5,8.5,0,0,1-2.711-1.764,8.269,8.269,0,0,1-1.811-2.613,7.813,7.813,0,0,1-.66-3.193,7.72,7.72,0,0,1,1.145-4.066,7.978,7.978,0,0,1,1.326-1.623,8.438,8.438,0,0,1,1.724-1.254,8.838,8.838,0,0,1,2.051-.809,9.348,9.348,0,0,1,4.6,0,8.978,8.978,0,0,1,2.051.809,8.256,8.256,0,0,1,3.05,2.877A7.606,7.606,0,0,1,347.44,11a7.687,7.687,0,0,1,.3,2.145,7.9,7.9,0,0,1-1.151,4.137,8.392,8.392,0,0,1-3.05,2.953,8.69,8.69,0,0,1-2.051.832A8.9,8.9,0,0,1,339.185,21.363Zm0-.773a4.846,4.846,0,0,0,2.355-.557,5.035,5.035,0,0,0,1.724-1.553,7.243,7.243,0,0,0,1.057-2.355,11.719,11.719,0,0,0,.356-2.977,11.4,11.4,0,0,0-.356-2.941,6.918,6.918,0,0,0-1.057-2.3,4.918,4.918,0,0,0-1.724-1.5,5.019,5.019,0,0,0-2.355-.533,5.071,5.071,0,0,0-2.378.533,4.867,4.867,0,0,0-1.718,1.5,6.9,6.9,0,0,0-1.046,2.3,11.577,11.577,0,0,0-.351,2.941,11.9,11.9,0,0,0,.351,2.977,7.229,7.229,0,0,0,1.046,2.355,4.983,4.983,0,0,0,1.718,1.553A4.9,4.9,0,0,0,339.185,20.59Z" transform="translate(-1.418 29.262)" fill="#0a0101" stroke="rgba(0,0,0,0)" stroke-width="1"/>
  </g>
</svg>
